<?xml version="1.0" encoding="UTF-8"?>
<svg width="18px" height="15px" viewBox="0 0 18 15" version="1.1" xmlns="http://www.w3.org/2000/svg" xmlns:xlink="http://www.w3.org/1999/xlink">
    <!-- Generator: Sketch 41.2 (35397) - http://www.bohemiancoding.com/sketch -->
    <title>Shape</title>
    <desc>Created with Sketch.</desc>
    <defs></defs>
    <g id="Page-1" stroke="none" stroke-width="1" fill="none" fill-rule="evenodd">
        <g id="DayView" transform="translate(-12.000000, -17.000000)" fill="#FFFFFF">
            <g id="navbar">
                <g id="menu" transform="translate(12.952381, 17.150000)">
                    <path d="M1.50609081,3.01538462 L14.6843854,3.01538462 C15.516124,3.01538462 16.1904762,2.33993846 16.1904762,1.50769231 C16.1904762,0.674315385 15.5168771,0 14.6851384,0 L1.50609081,0 C0.674728682,0 0,0.674315385 0,1.50769231 C0,2.33993846 0.674728682,3.01538462 1.50609081,3.01538462 Z M14.6843854,5.65346923 L1.50609081,5.65346923 C0.674352159,5.65346923 0,6.32853846 0,7.16191538 C0,7.99453846 0.674728682,8.66960769 1.50609081,8.66960769 L14.6843854,8.66960769 C15.516124,8.66960769 16.1904762,7.99453846 16.1904762,7.16191538 C16.1904762,6.32853846 15.516124,5.65346923 14.6843854,5.65346923 Z M14.6843854,11.3073154 L1.50609081,11.3073154 C0.674352159,11.3073154 0,11.9823846 0,12.8157615 C0,13.6483846 0.674728682,14.3234538 1.50609081,14.3234538 L14.6843854,14.3234538 C15.516124,14.3234538 16.1904762,13.6483846 16.1904762,12.8157615 C16.1904762,11.9823846 15.516124,11.3073154 14.6843854,11.3073154 Z" id="Shape"></path>
                </g>
            </g>
        </g>
    </g>
</svg>